<svg width="501" height="205" viewBox="0 0 501 205" fill="none" xmlns="http://www.w3.org/2000/svg">
<path fill-rule="evenodd" clip-rule="evenodd" d="M26.0984 170.373L83.4486 204.885L153.117 170.373H128.848L156.745 32.3926H98.1971L101.221 17.4316H28.6899L0 159.331H58.6918L56.4587 170.373H26.0984ZM39.2805 136.81C47.3489 144.811 58.9402 149.04 72.8031 149.04C92.0326 149.04 106.298 143.716 119.06 131.78L119.824 131.065L100.042 113.131L99.3717 113.787C94.7811 118.291 87.0674 123.66 76.3845 123.66C70.6159 123.66 65.9068 121.942 62.7674 118.693C59.6924 115.514 58.1339 110.961 58.2331 105.486H125.778L126.644 100.595L127.509 95.7047C130.355 80.4557 127.552 66.8956 119.616 57.5241C112.217 48.7878 100.777 44.1706 86.5343 44.1706C50.0284 44.1706 27.4315 76.0013 27.4315 105.484C27.3293 118.19 31.4261 129.023 39.2805 136.81Z" fill="#FFD630"/>
<path d="M61.9189 85.5757H98.6298C99.5228 79.6849 98.6379 74.9936 96.0516 71.972C93.6778 69.1976 89.8728 67.7915 84.7432 67.7915C72.23 67.7915 64.3963 76.5381 61.9189 85.5757Z" fill="#FFD630"/>
<path d="M221.799 82V19.408H235.911V82H221.799ZM269.778 83.152C265.682 83.152 261.586 82.384 257.49 80.848C253.458 79.312 249.842 77.072 246.642 74.128L254.706 64.432C256.946 66.352 259.442 67.92 262.194 69.136C264.946 70.352 267.602 70.96 270.162 70.96C273.106 70.96 275.282 70.416 276.69 69.328C278.162 68.24 278.898 66.768 278.898 64.912C278.898 62.928 278.066 61.488 276.402 60.592C274.802 59.632 272.626 58.576 269.874 57.424L261.714 53.968C259.602 53.072 257.586 51.888 255.666 50.416C253.746 48.88 252.178 46.992 250.962 44.752C249.746 42.512 249.138 39.888 249.138 36.88C249.138 33.424 250.066 30.288 251.922 27.472C253.842 24.656 256.466 22.416 259.794 20.752C263.186 19.088 267.058 18.256 271.41 18.256C274.994 18.256 278.578 18.96 282.162 20.368C285.746 21.776 288.882 23.824 291.57 26.512L284.37 35.44C282.322 33.84 280.274 32.624 278.226 31.792C276.178 30.896 273.906 30.448 271.41 30.448C268.978 30.448 267.026 30.96 265.554 31.984C264.146 32.944 263.442 34.32 263.442 36.112C263.442 38.032 264.338 39.472 266.13 40.432C267.986 41.392 270.258 42.416 272.946 43.504L281.01 46.768C284.786 48.304 287.794 50.416 290.034 53.104C292.274 55.792 293.394 59.344 293.394 63.76C293.394 67.216 292.466 70.416 290.61 73.36C288.754 76.304 286.066 78.672 282.546 80.464C279.026 82.256 274.77 83.152 269.778 83.152ZM329.458 83.152C323.826 83.152 318.866 81.84 314.578 79.216C310.354 76.592 307.026 72.848 304.594 67.984C302.226 63.056 301.042 57.2 301.042 50.416C301.042 43.568 302.226 37.776 304.594 33.04C307.026 28.24 310.354 24.592 314.578 22.096C318.866 19.536 323.826 18.256 329.458 18.256C335.09 18.256 340.018 19.536 344.242 22.096C348.53 24.592 351.858 28.24 354.226 33.04C356.658 37.84 357.874 43.632 357.874 50.416C357.874 57.2 356.658 63.056 354.226 67.984C351.858 72.848 348.53 76.592 344.242 79.216C340.018 81.84 335.09 83.152 329.458 83.152ZM329.458 70.96C333.746 70.96 337.138 69.104 339.634 65.392C342.13 61.68 343.378 56.688 343.378 50.416C343.378 44.144 342.13 39.248 339.634 35.728C337.138 32.208 333.746 30.448 329.458 30.448C325.17 30.448 321.778 32.208 319.282 35.728C316.786 39.248 315.538 44.144 315.538 50.416C315.538 56.688 316.786 61.68 319.282 65.392C321.778 69.104 325.17 70.96 329.458 70.96ZM369.643 82V19.408H387.307C393.707 19.408 399.243 20.496 403.915 22.672C408.587 24.848 412.203 28.24 414.763 32.848C417.387 37.392 418.699 43.248 418.699 50.416C418.699 57.584 417.419 63.504 414.859 68.176C412.299 72.848 408.715 76.336 404.107 78.64C399.563 80.88 394.219 82 388.075 82H369.643ZM383.755 70.576H386.443C390.027 70.576 393.131 69.936 395.755 68.656C398.443 67.376 400.523 65.264 401.995 62.32C403.467 59.376 404.203 55.408 404.203 50.416C404.203 45.424 403.467 41.52 401.995 38.704C400.523 35.824 398.443 33.808 395.755 32.656C393.131 31.44 390.027 30.832 386.443 30.832H383.755V70.576ZM221.799 178V115.408H237.255L247.335 143.248C247.975 145.04 248.583 146.928 249.159 148.912C249.735 150.896 250.343 152.848 250.983 154.768H251.367C252.007 152.848 252.583 150.896 253.095 148.912C253.671 146.928 254.279 145.04 254.919 143.248L264.807 115.408H280.167V178H267.303V155.056C267.303 153.008 267.399 150.736 267.591 148.24C267.847 145.68 268.103 143.12 268.359 140.56C268.679 138 268.935 135.728 269.127 133.744H268.743L263.655 148.624L254.727 172.528H246.951L238.023 148.624L233.031 133.744H232.647C232.903 135.728 233.159 138 233.415 140.56C233.671 143.12 233.895 145.68 234.087 148.24C234.343 150.736 234.471 153.008 234.471 155.056V178H221.799ZM314.22 179.152C310.188 179.152 306.38 178.192 302.796 176.272C299.276 174.288 296.428 171.44 294.252 167.728C292.076 163.952 290.988 159.44 290.988 154.192C290.988 148.88 292.076 144.368 294.252 140.656C296.428 136.944 299.276 134.128 302.796 132.208C306.38 130.224 310.188 129.232 314.22 129.232C318.252 129.232 322.028 130.224 325.548 132.208C329.068 134.128 331.916 136.944 334.092 140.656C336.268 144.368 337.356 148.88 337.356 154.192C337.356 159.44 336.268 163.952 334.092 167.728C331.916 171.44 329.068 174.288 325.548 176.272C322.028 178.192 318.252 179.152 314.22 179.152ZM314.22 167.728C317.1 167.728 319.276 166.512 320.748 164.08C322.22 161.584 322.956 158.288 322.956 154.192C322.956 150.032 322.22 146.736 320.748 144.304C319.276 141.872 317.1 140.656 314.22 140.656C311.276 140.656 309.068 141.872 307.596 144.304C306.188 146.736 305.484 150.032 305.484 154.192C305.484 158.288 306.188 161.584 307.596 164.08C309.068 166.512 311.276 167.728 314.22 167.728ZM371.982 179.152C369.87 179.152 367.726 178.64 365.55 177.616C363.438 176.528 361.454 174.96 359.598 172.912H359.214L358.062 178H347.022V110.704H361.134V127.216L360.75 134.512C362.606 132.848 364.622 131.568 366.798 130.672C368.974 129.712 371.15 129.232 373.326 129.232C377.166 129.232 380.494 130.224 383.31 132.208C386.126 134.192 388.27 137.008 389.742 140.656C391.278 144.24 392.046 148.464 392.046 153.328C392.046 158.768 391.086 163.44 389.166 167.344C387.246 171.184 384.75 174.128 381.678 176.176C378.67 178.16 375.438 179.152 371.982 179.152ZM368.718 167.632C371.15 167.632 373.23 166.512 374.958 164.272C376.686 162.032 377.55 158.48 377.55 153.616C377.55 145.04 374.798 140.752 369.294 140.752C366.478 140.752 363.758 142.192 361.134 145.072V164.56C362.414 165.712 363.694 166.512 364.974 166.96C366.254 167.408 367.502 167.632 368.718 167.632ZM402.053 178V130.384H416.165V178H402.053ZM409.061 123.376C406.693 123.376 404.773 122.704 403.301 121.36C401.829 120.016 401.093 118.224 401.093 115.984C401.093 113.744 401.829 111.952 403.301 110.608C404.773 109.264 406.693 108.592 409.061 108.592C411.429 108.592 413.349 109.264 414.821 110.608C416.293 111.952 417.029 113.744 417.029 115.984C417.029 118.224 416.293 120.016 414.821 121.36C413.349 122.704 411.429 123.376 409.061 123.376ZM441.544 179.152C436.68 179.152 433.288 177.712 431.368 174.832C429.512 171.888 428.584 168.016 428.584 163.216V110.704H442.696V163.792C442.696 165.264 442.952 166.288 443.464 166.864C444.04 167.44 444.616 167.728 445.192 167.728C445.512 167.728 445.768 167.728 445.96 167.728C446.216 167.664 446.536 167.6 446.92 167.536L448.648 178C447.88 178.32 446.888 178.576 445.672 178.768C444.52 179.024 443.144 179.152 441.544 179.152ZM477.365 179.152C472.821 179.152 468.725 178.16 465.077 176.176C461.429 174.192 458.549 171.344 456.437 167.632C454.325 163.92 453.269 159.44 453.269 154.192C453.269 149.008 454.325 144.56 456.437 140.848C458.613 137.136 461.429 134.288 464.885 132.304C468.341 130.256 471.957 129.232 475.733 129.232C480.277 129.232 484.021 130.256 486.965 132.304C489.973 134.288 492.213 137.008 493.685 140.464C495.221 143.856 495.989 147.728 495.989 152.08C495.989 153.296 495.925 154.512 495.797 155.728C495.669 156.88 495.541 157.744 495.413 158.32H466.901C467.541 161.776 468.981 164.336 471.221 166C473.461 167.6 476.149 168.4 479.285 168.4C482.677 168.4 486.101 167.344 489.557 165.232L494.261 173.776C491.829 175.44 489.109 176.752 486.101 177.712C483.093 178.672 480.181 179.152 477.365 179.152ZM466.805 149.008H483.989C483.989 146.384 483.349 144.24 482.069 142.576C480.853 140.848 478.837 139.984 476.021 139.984C473.845 139.984 471.893 140.752 470.165 142.288C468.437 143.76 467.317 146 466.805 149.008Z" fill="#FFD630"/>
</svg>
